<svg width="25" height="25" viewBox="0 0 25 25" fill="none" xmlns="http://www.w3.org/2000/svg">
<path d="M17.1047 11.5854H18.2202C17.8278 9.12236 15.8775 7.17212 13.4144 6.77979V7.89517C13.4144 8.40029 13.0049 8.80981 12.4997 8.80981C11.9946 8.80981 11.5851 8.40029 11.5851 7.89517V6.77988C9.12214 7.17231 7.17205 9.12251 6.77966 11.5854H7.8948C8.39993 11.5854 8.80945 11.995 8.80945 12.5001C8.80945 13.0052 8.39993 13.4147 7.8948 13.4147H6.77966C7.17205 15.8777 9.12214 17.8278 11.5851 18.2203V17.105C11.5851 16.5999 11.9946 16.1904 12.4997 16.1904C13.0049 16.1904 13.4144 16.5999 13.4144 17.105V18.2204C15.8774 17.8281 17.8278 15.8778 18.2202 13.4148H17.1047C16.5996 13.4148 16.1901 13.0053 16.1901 12.5001C16.1901 11.9949 16.5995 11.5854 17.1047 11.5854Z" fill="#4FB56B"/>
<path d="M12.5 0C5.60752 0 0 5.60742 0 12.5C0 19.3926 5.60752 25 12.5 25C19.3925 25 25 19.3926 25 12.5C25 5.60742 19.3925 0 12.5 0ZM21.3096 13.4146H20.0669C19.6496 16.8878 16.8876 19.6497 13.4145 20.0669V21.3097C13.4145 21.8148 13.0049 22.2244 12.4998 22.2244C11.9947 22.2244 11.5852 21.8148 11.5852 21.3097V20.0668C8.11216 19.6495 5.35034 16.8877 4.93311 13.4146H3.69014C3.18501 13.4146 2.77549 13.0051 2.77549 12.5C2.77549 11.9949 3.18501 11.5854 3.69014 11.5854H4.93311C5.35034 8.11231 8.11221 5.35049 11.5852 4.93315V3.69028C11.5852 3.18516 11.9947 2.77563 12.4998 2.77563C13.0049 2.77563 13.4145 3.18516 13.4145 3.69028V4.93311C16.8876 5.35029 19.6496 8.11221 20.0669 11.5854H21.3096C21.8147 11.5854 22.2242 11.9949 22.2242 12.5C22.2242 13.0051 21.8147 13.4146 21.3096 13.4146Z" fill="#4FB56B"/>
</svg>
