<svg width="25" height="25" viewBox="0 0 25 25" fill="none" xmlns="http://www.w3.org/2000/svg">
<path d="M0 16.7542V4.11133C0 3.11602 0.806452 2.30957 1.80176 2.30957H20.5084C21.5037 2.30957 22.3101 3.11602 22.3101 4.11133V8.0364H19.8499V4.76465H2.45508V16.0754H15.7258V18.5509H13.1686V20.5619H14.5978C14.8377 20.5619 15.0316 20.7559 15.0316 20.9958V22.2463C15.0316 22.4862 14.8377 22.6801 14.5978 22.6801H7.70212C7.46223 22.6801 7.26827 22.4862 7.26827 22.2463V20.9958C7.26827 20.7559 7.46223 20.5619 7.70212 20.5619H9.13128V18.5509H1.80176C0.806452 18.556 0 17.7495 0 16.7542ZM25 20.9651V20.4496V20.077V11.5633V11.1346C25 10.3333 24.3671 9.67482 23.5913 9.67482H18.773C17.9971 9.67482 17.3642 10.3333 17.3642 11.1346V11.5633V20.9702V21.2306C17.3642 22.0319 17.9971 22.6903 18.773 22.6903H23.5913C24.3671 22.6903 25 22.0319 25 21.2306V20.9651V20.9651ZM14.5519 7.48005L12.5817 6.15298C12.4745 6.08152 12.3316 6.15808 12.3316 6.28568V7.00536H8.39628C8.05941 7.00536 7.78889 7.27588 7.78889 7.61276V10.8488H9.00878V8.22015H12.3316V8.93983C12.3316 9.06743 12.4745 9.1491 12.5817 9.07253L14.5519 7.74546C14.6488 7.68421 14.6488 7.5413 14.5519 7.48005ZM9.72336 11.5327L7.75316 12.8598C7.65619 12.9261 7.65619 13.064 7.75316 13.1303L9.72336 14.4574C9.83054 14.5288 9.97346 14.4523 9.97346 14.3247V13.605H13.9087C14.2456 13.605 14.5161 13.3345 14.5161 12.9976V9.76159H13.2962V12.3902H9.97346V11.6705C9.97346 11.5378 9.83054 11.4613 9.72336 11.5327Z" fill="#4FB56B"/>
</svg>
