<svg width="25" height="15" viewBox="0 0 25 15" fill="none" xmlns="http://www.w3.org/2000/svg">
<path d="M12.493 12.2279C15.011 12.2279 17.0596 10.1069 17.0596 7.49992C17.0596 4.89293 15.011 2.77197 12.493 2.77197C9.97496 2.77197 7.92639 4.89293 7.92639 7.49992C7.92639 10.1069 9.97496 12.2279 12.493 12.2279ZM12.493 5.44467C13.5876 5.44467 14.4781 6.36663 14.4781 7.49992C14.4781 8.63321 13.5876 9.55517 12.493 9.55517C11.3984 9.55517 10.5079 8.63321 10.5079 7.49992C10.5079 6.36663 11.3984 5.44467 12.493 5.44467Z" fill="#4FB56B"/>
<path d="M24.925 7.19105C24.8865 7.1168 23.9598 5.3515 21.9663 3.58071C20.1273 1.94727 16.9923 0 12.5001 0C8.00791 0 4.87281 1.94727 3.03375 3.58071C1.04024 5.35142 0.113468 7.11672 0.0750002 7.19105C-0.0248314 7.38365 -0.0249998 7.61512 0.0744952 7.80799C0.112795 7.88232 1.03628 9.64797 3.02828 11.4191C4.86566 13.0526 8.00042 15 12.5001 15C16.9997 15 20.1344 13.0526 21.9718 11.419C23.9638 9.64806 24.8872 7.88224 24.9255 7.8079C25.025 7.61512 25.0248 7.38365 24.925 7.19105ZM12.493 1.46463C15.7072 1.46463 18.3222 4.17193 18.3222 7.49983C18.3222 10.8277 15.7072 13.535 12.493 13.535C9.2787 13.535 6.66381 10.8276 6.66381 7.49983C6.66381 4.17202 9.2787 1.46463 12.493 1.46463Z" fill="#4FB56B"/>
</svg>
