<svg width="22" height="15" viewBox="0 0 22 15" fill="none" xmlns="http://www.w3.org/2000/svg">
<path d="M19 1.83333C19 1.83333 16.707 0.18791 14 0L13.756 0.44779C16.203 0.99733 17.326 1.78291 18.5 2.75C16.4765 1.80308 14.48 0.91666 11 0.91666C7.52 0.91666 5.5235 1.80308 3.5 2.75C4.674 1.78291 6.01 0.90933 8.244 0.44779L8 0C5.16 0.24521 3 1.83333 3 1.83333C3 1.83333 0.4395 5.23691 0 11.9166C2.58 14.6451 6.5 14.6667 6.5 14.6667L7.32 13.6656C5.928 13.2219 4.358 12.4305 3 11C4.619 12.123 7.0625 13.2917 11 13.2917C14.9375 13.2917 17.381 12.123 19 11C17.6425 12.4305 16.0725 13.2219 14.68 13.6656L15.5 14.6667C15.5 14.6667 19.42 14.6451 22 11.9166C21.5605 5.23691 19 1.83333 19 1.83333ZM7.75 10.0834C6.783 10.0834 6 9.26295 6 8.24995C6 7.23705 6.783 6.41665 7.75 6.41665C8.717 6.41665 9.5 7.23705 9.5 8.24995C9.5 9.26295 8.717 10.0834 7.75 10.0834ZM14.25 10.0834C13.283 10.0834 12.5 9.26295 12.5 8.24995C12.5 7.23705 13.283 6.41665 14.25 6.41665C15.217 6.41665 16 7.23705 16 8.24995C16 9.26295 15.217 10.0834 14.25 10.0834Z" fill="#DFDADA"/>
</svg>
