<svg width="22" height="16" viewBox="0 0 22 16" fill="none" xmlns="http://www.w3.org/2000/svg">
<path d="M21.7809 3.33868C21.7809 3.33868 21.566 1.82188 20.9043 1.15586C20.0664 0.2793 19.1297 0.275 18.7 0.22344C15.6234 -7.45058e-08 11.0043 0 11.0043 0H10.9957C10.9957 0 6.37656 -7.45058e-08 3.3 0.22344C2.87031 0.275 1.93359 0.2793 1.0957 1.15586C0.433984 1.82188 0.223437 3.33868 0.223437 3.33868C0.223437 3.33868 0 5.12188 0 6.90083V8.56793C0 10.3468 0.219141 12.1301 0.219141 12.1301C0.219141 12.1301 0.433984 13.6468 1.09141 14.3129C1.9293 15.1894 3.0293 15.1593 3.51914 15.2539C5.28086 15.4215 11 15.473 11 15.473C11 15.473 15.6234 15.4644 18.7 15.2453C19.1297 15.1937 20.0664 15.1894 20.9043 14.3129C21.566 13.6468 21.7809 12.1301 21.7809 12.1301C21.7809 12.1301 22 10.3511 22 8.56793V6.90083C22 5.12188 21.7809 3.33868 21.7809 3.33868ZM8.72695 10.5918V4.4086L14.6695 7.51093L8.72695 10.5918Z" fill="#DFDADA"/>
</svg>
