<svg width="235" height="235" viewBox="0 0 235 235" fill="none" xmlns="http://www.w3.org/2000/svg">
<rect width="235" height="235" rx="30" fill="#4FB56B"/>
<path d="M56.1382 163.675V156.5H59.0132V174H56.1382V166.425H48.6382V174H45.7632V156.5H48.6382V163.675H56.1382ZM64.9862 169.425L71.3862 161.5H73.4612V174H70.8112V166.05L64.4112 174H62.3362V161.5H64.9862V169.425ZM83.619 167.6C84.9524 168.2 85.619 169.192 85.619 170.575C85.619 171.658 85.1774 172.558 84.294 173.275C83.4107 173.975 82.2107 174.325 80.694 174.325C78.1774 174.325 76.4774 173.325 75.594 171.325L77.794 170.025C78.244 171.275 79.219 171.9 80.719 171.9C81.419 171.9 81.969 171.758 82.369 171.475C82.769 171.175 82.969 170.783 82.969 170.3C82.969 169.867 82.8107 169.525 82.494 169.275C82.1774 169.008 81.7357 168.875 81.169 168.875H79.394V166.5H80.719C81.269 166.5 81.694 166.375 81.994 166.125C82.3107 165.858 82.469 165.5 82.469 165.05C82.469 164.617 82.294 164.267 81.944 164C81.594 163.717 81.1274 163.575 80.544 163.575C79.294 163.575 78.4274 164.125 77.944 165.225L75.744 163.975C76.6607 162.108 78.244 161.175 80.494 161.175C81.894 161.175 83.0024 161.533 83.819 162.25C84.6524 162.95 85.069 163.808 85.069 164.825C85.069 166.075 84.5857 167 83.619 167.6ZM93.1745 167.625L98.8745 174H95.6495L90.5245 168.225V174H87.8245V161.5H90.5245V167.025L95.3745 161.5H98.6745L93.1745 167.625ZM109.59 163.275V161.5H112.29V174H109.59V172.2C108.573 173.617 107.115 174.325 105.215 174.325C103.498 174.325 102.031 173.692 100.815 172.425C99.5981 171.158 98.9897 169.6 98.9897 167.75C98.9897 165.9 99.5981 164.342 100.815 163.075C102.031 161.808 103.498 161.175 105.215 161.175C107.115 161.175 108.573 161.875 109.59 163.275ZM102.815 170.625C103.565 171.375 104.506 171.75 105.64 171.75C106.773 171.75 107.715 171.375 108.465 170.625C109.215 169.858 109.59 168.9 109.59 167.75C109.59 166.6 109.215 165.65 108.465 164.9C107.715 164.133 106.773 163.75 105.64 163.75C104.506 163.75 103.565 164.133 102.815 164.9C102.065 165.65 101.69 166.6 101.69 167.75C101.69 168.883 102.065 169.842 102.815 170.625ZM119.537 161.5H125.112V174H122.462V169.8H120.962L117.787 174H114.612L117.987 169.55C117.12 169.267 116.42 168.767 115.887 168.05C115.37 167.333 115.112 166.533 115.112 165.65C115.112 164.5 115.52 163.525 116.337 162.725C117.153 161.908 118.22 161.5 119.537 161.5ZM119.687 167.475H122.462V163.95H119.687C119.12 163.95 118.653 164.117 118.287 164.45C117.937 164.767 117.762 165.192 117.762 165.725C117.762 166.258 117.937 166.683 118.287 167C118.653 167.317 119.12 167.475 119.687 167.475ZM145.254 161.5V171.45H147.304V177.35H144.654V174H134.504V161.5H137.204V171.45H142.554V161.5H145.254ZM161.081 168.9H151.131C151.331 169.833 151.781 170.558 152.481 171.075C153.198 171.592 154.081 171.85 155.131 171.85C156.548 171.85 157.623 171.333 158.356 170.3L160.581 171.6C159.364 173.417 157.539 174.325 155.106 174.325C153.089 174.325 151.448 173.708 150.181 172.475C148.931 171.225 148.306 169.65 148.306 167.75C148.306 165.9 148.923 164.342 150.156 163.075C151.373 161.808 152.956 161.175 154.906 161.175C156.723 161.175 158.223 161.817 159.406 163.1C160.589 164.383 161.181 165.942 161.181 167.775C161.181 168.108 161.148 168.483 161.081 168.9ZM151.106 166.7H158.456C158.273 165.717 157.856 164.958 157.206 164.425C156.573 163.892 155.798 163.625 154.881 163.625C153.881 163.625 153.048 163.9 152.381 164.45C151.714 165 151.289 165.75 151.106 166.7ZM171.982 166.475V161.5H174.682V174H171.982V169.025H166.257V174H163.557V161.5H166.257V166.475H171.982ZM187.715 163.275V161.5H190.415V174H187.715V172.2C186.698 173.617 185.24 174.325 183.34 174.325C181.623 174.325 180.156 173.692 178.94 172.425C177.723 171.158 177.115 169.6 177.115 167.75C177.115 165.9 177.723 164.342 178.94 163.075C180.156 161.808 181.623 161.175 183.34 161.175C185.24 161.175 186.698 161.875 187.715 163.275ZM180.94 170.625C181.69 171.375 182.631 171.75 183.765 171.75C184.898 171.75 185.84 171.375 186.59 170.625C187.34 169.858 187.715 168.9 187.715 167.75C187.715 166.6 187.34 165.65 186.59 164.9C185.84 164.133 184.898 163.75 183.765 163.75C182.631 163.75 181.69 164.133 180.94 164.9C180.19 165.65 179.815 166.6 179.815 167.75C179.815 168.883 180.19 169.842 180.94 170.625Z" fill="white"/>
<path d="M154.281 94.7969L121.168 61.6844C119.781 60.2969 117.868 59.5094 115.881 59.5094H88.9932C84.8682 59.5094 81.4932 62.8844 81.4932 67.0094V93.8969C81.4932 95.8844 82.2807 97.7969 83.7057 99.1844L116.818 132.297C119.743 135.222 124.506 135.222 127.431 132.297L154.318 105.409C157.243 102.484 157.243 97.7594 154.281 94.7969ZM98.3682 82.0094C95.2557 82.0094 92.7432 79.4969 92.7432 76.3844C92.7432 73.2719 95.2557 70.7594 98.3682 70.7594C101.481 70.7594 103.993 73.2719 103.993 76.3844C103.993 79.4969 101.481 82.0094 98.3682 82.0094Z" fill="white"/>
</svg>
