<svg width="490" height="235" viewBox="0 0 490 235" fill="none" xmlns="http://www.w3.org/2000/svg">
<rect width="490" height="235" rx="30" fill="#4FB56B"/>
<path d="M173.625 81.5H191.405V106H188.15V84.58H176.88V106H173.625V81.5ZM206.007 88.045C208.457 88.045 210.545 88.9433 212.272 90.74C213.999 92.5367 214.862 94.7067 214.862 97.25C214.862 99.8167 213.999 101.998 212.272 103.795C210.569 105.568 208.48 106.455 206.007 106.455C203.114 106.455 200.909 105.3 199.392 102.99V113H196.347V88.5H199.392V91.51C200.909 89.2 203.114 88.045 206.007 88.045ZM205.622 103.515C207.372 103.515 208.842 102.92 210.032 101.73C211.222 100.493 211.817 99 211.817 97.25C211.817 95.4767 211.222 93.995 210.032 92.805C208.842 91.5917 207.372 90.985 205.622 90.985C203.849 90.985 202.367 91.5917 201.177 92.805C199.987 93.995 199.392 95.4767 199.392 97.25C199.392 99 199.987 100.493 201.177 101.73C202.367 102.92 203.849 103.515 205.622 103.515ZM233.266 103.795C231.492 105.568 229.311 106.455 226.721 106.455C224.131 106.455 221.949 105.568 220.176 103.795C218.402 102.022 217.516 99.84 217.516 97.25C217.516 94.66 218.402 92.4783 220.176 90.705C221.949 88.9317 224.131 88.045 226.721 88.045C229.311 88.045 231.492 88.9317 233.266 90.705C235.062 92.5017 235.961 94.6833 235.961 97.25C235.961 99.8167 235.062 101.998 233.266 103.795ZM226.721 103.48C228.471 103.48 229.941 102.885 231.131 101.695C232.321 100.505 232.916 99.0233 232.916 97.25C232.916 95.4767 232.321 93.995 231.131 92.805C229.941 91.615 228.471 91.02 226.721 91.02C224.994 91.02 223.536 91.615 222.346 92.805C221.156 93.995 220.561 95.4767 220.561 97.25C220.561 99.0233 221.156 100.505 222.346 101.695C223.536 102.885 224.994 103.48 226.721 103.48ZM247.775 106.455C245.139 106.455 242.945 105.58 241.195 103.83C239.445 102.057 238.57 99.8633 238.57 97.25C238.57 94.6367 239.445 92.455 241.195 90.705C242.945 88.9317 245.139 88.045 247.775 88.045C249.502 88.045 251.054 88.465 252.43 89.305C253.807 90.1217 254.834 91.23 255.51 92.63L252.955 94.1C252.512 93.1667 251.824 92.42 250.89 91.86C249.98 91.3 248.942 91.02 247.775 91.02C246.025 91.02 244.555 91.615 243.365 92.805C242.199 94.0183 241.615 95.5 241.615 97.25C241.615 98.9767 242.199 100.447 243.365 101.66C244.555 102.85 246.025 103.445 247.775 103.445C248.942 103.445 249.992 103.177 250.925 102.64C251.859 102.08 252.57 101.333 253.06 100.4L255.65 101.905C254.88 103.305 253.795 104.413 252.395 105.23C250.995 106.047 249.455 106.455 247.775 106.455ZM256.423 88.5H271.403V91.44H265.453V106H262.408V91.44H256.423V88.5ZM288.158 103.795C286.385 105.568 284.203 106.455 281.613 106.455C279.023 106.455 276.841 105.568 275.068 103.795C273.295 102.022 272.408 99.84 272.408 97.25C272.408 94.66 273.295 92.4783 275.068 90.705C276.841 88.9317 279.023 88.045 281.613 88.045C284.203 88.045 286.385 88.9317 288.158 90.705C289.955 92.5017 290.853 94.6833 290.853 97.25C290.853 99.8167 289.955 101.998 288.158 103.795ZM281.613 103.48C283.363 103.48 284.833 102.885 286.023 101.695C287.213 100.505 287.808 99.0233 287.808 97.25C287.808 95.4767 287.213 93.995 286.023 92.805C284.833 91.615 283.363 91.02 281.613 91.02C279.886 91.02 278.428 91.615 277.238 92.805C276.048 93.995 275.453 95.4767 275.453 97.25C275.453 99.0233 276.048 100.505 277.238 101.695C278.428 102.885 279.886 103.48 281.613 103.48ZM291.799 88.5H306.779V91.44H300.829V106H297.784V91.44H291.799V88.5ZM323.254 91.51V88.5H326.299V106H323.254V102.99C321.761 105.3 319.556 106.455 316.639 106.455C314.166 106.455 312.077 105.568 310.374 103.795C308.647 101.998 307.784 99.8167 307.784 97.25C307.784 94.7067 308.647 92.5367 310.374 90.74C312.101 88.9433 314.189 88.045 316.639 88.045C319.556 88.045 321.761 89.2 323.254 91.51ZM317.024 103.515C318.797 103.515 320.279 102.92 321.469 101.73C322.659 100.493 323.254 99 323.254 97.25C323.254 95.4767 322.659 93.995 321.469 92.805C320.279 91.5917 318.797 90.985 317.024 90.985C315.274 90.985 313.804 91.5917 312.614 92.805C311.424 93.995 310.829 95.4767 310.829 97.25C310.829 99 311.424 100.493 312.614 101.73C313.804 102.92 315.274 103.515 317.024 103.515ZM184.965 139.005C186.762 139.752 187.66 141.105 187.66 143.065C187.66 144.558 187.17 145.76 186.19 146.67C185.21 147.557 183.833 148 182.06 148H173.31V130.5H181.36C183.087 130.5 184.428 130.932 185.385 131.795C186.365 132.658 186.855 133.813 186.855 135.26C186.855 136.94 186.225 138.188 184.965 139.005ZM181.22 133.23H176.285V137.815H181.22C182.993 137.815 183.88 137.033 183.88 135.47C183.88 133.977 182.993 133.23 181.22 133.23ZM176.285 145.235H181.885C182.772 145.235 183.448 145.025 183.915 144.605C184.405 144.185 184.65 143.59 184.65 142.82C184.65 142.097 184.405 141.537 183.915 141.14C183.448 140.72 182.772 140.51 181.885 140.51H176.285V145.235ZM202.707 142.785L212.402 130.5H214.852V148H211.842V135.715L202.147 148H199.697V130.5H202.707V142.785ZM227.712 148.455C225.075 148.455 222.882 147.58 221.132 145.83C219.382 144.057 218.507 141.863 218.507 139.25C218.507 136.637 219.382 134.455 221.132 132.705C222.882 130.932 225.075 130.045 227.712 130.045C229.438 130.045 230.99 130.465 232.367 131.305C233.743 132.122 234.77 133.23 235.447 134.63L232.892 136.1C232.448 135.167 231.76 134.42 230.827 133.86C229.917 133.3 228.878 133.02 227.712 133.02C225.962 133.02 224.492 133.615 223.302 134.805C222.135 136.018 221.552 137.5 221.552 139.25C221.552 140.977 222.135 142.447 223.302 143.66C224.492 144.85 225.962 145.445 227.712 145.445C228.878 145.445 229.928 145.177 230.862 144.64C231.795 144.08 232.507 143.333 232.997 142.4L235.587 143.905C234.817 145.305 233.732 146.413 232.332 147.23C230.932 148.047 229.392 148.455 227.712 148.455ZM238.627 130.5H253.782V148H250.737V133.405H241.672V148H238.627V130.5ZM273.187 145.795C271.414 147.568 269.232 148.455 266.642 148.455C264.052 148.455 261.871 147.568 260.097 145.795C258.324 144.022 257.437 141.84 257.437 139.25C257.437 136.66 258.324 134.478 260.097 132.705C261.871 130.932 264.052 130.045 266.642 130.045C269.232 130.045 271.414 130.932 273.187 132.705C274.984 134.502 275.882 136.683 275.882 139.25C275.882 141.817 274.984 143.998 273.187 145.795ZM266.642 145.48C268.392 145.48 269.862 144.885 271.052 143.695C272.242 142.505 272.837 141.023 272.837 139.25C272.837 137.477 272.242 135.995 271.052 134.805C269.862 133.615 268.392 133.02 266.642 133.02C264.916 133.02 263.457 133.615 262.267 134.805C261.077 135.995 260.482 137.477 260.482 139.25C260.482 141.023 261.077 142.505 262.267 143.695C263.457 144.885 264.916 145.48 266.642 145.48ZM280.467 130.5H293.452V148H290.407V133.44H283.512V140.58C283.512 143.38 282.952 145.375 281.832 146.565C280.712 147.732 279.067 148.21 276.897 148V145.13C278.11 145.293 279.009 145.025 279.592 144.325C280.175 143.602 280.467 142.33 280.467 140.51V130.5ZM301.111 136.8H305.451C307.201 136.8 308.648 137.325 309.791 138.375C310.958 139.402 311.541 140.743 311.541 142.4C311.541 144.057 310.958 145.41 309.791 146.46C308.624 147.487 307.178 148 305.451 148H298.066V130.5H301.111V136.8ZM301.111 145.165H305.451C306.338 145.165 307.073 144.908 307.656 144.395C308.239 143.882 308.531 143.217 308.531 142.4C308.531 141.583 308.228 140.918 307.621 140.405C307.038 139.868 306.314 139.6 305.451 139.6H301.111V145.165ZM323.888 139.04C325.825 139.857 326.793 141.245 326.793 143.205C326.793 144.722 326.198 145.982 325.008 146.985C323.818 147.965 322.173 148.455 320.073 148.455C316.573 148.455 314.228 147.055 313.038 144.255L315.593 142.75C316.246 144.663 317.751 145.62 320.108 145.62C321.251 145.62 322.15 145.375 322.803 144.885C323.456 144.395 323.783 143.742 323.783 142.925C323.783 142.225 323.515 141.653 322.978 141.21C322.465 140.767 321.765 140.545 320.878 140.545H318.323V137.78H320.213C321.1 137.78 321.788 137.57 322.278 137.15C322.768 136.707 323.013 136.112 323.013 135.365C323.013 134.595 322.721 133.988 322.138 133.545C321.555 133.078 320.773 132.845 319.793 132.845C317.833 132.845 316.503 133.673 315.803 135.33L313.318 133.895C314.555 131.328 316.713 130.045 319.793 130.045C321.66 130.045 323.153 130.535 324.273 131.515C325.416 132.472 325.988 133.673 325.988 135.12C325.988 136.893 325.288 138.2 323.888 139.04ZM344.862 145.795C343.089 147.568 340.907 148.455 338.317 148.455C335.727 148.455 333.546 147.568 331.772 145.795C329.999 144.022 329.112 141.84 329.112 139.25C329.112 136.66 329.999 134.478 331.772 132.705C333.546 130.932 335.727 130.045 338.317 130.045C340.907 130.045 343.089 130.932 344.862 132.705C346.659 134.502 347.557 136.683 347.557 139.25C347.557 141.817 346.659 143.998 344.862 145.795ZM338.317 145.48C340.067 145.48 341.537 144.885 342.727 143.695C343.917 142.505 344.512 141.023 344.512 139.25C344.512 137.477 343.917 135.995 342.727 134.805C341.537 133.615 340.067 133.02 338.317 133.02C336.591 133.02 335.132 133.615 333.942 134.805C332.752 135.995 332.157 137.477 332.157 139.25C332.157 141.023 332.752 142.505 333.942 143.695C335.132 144.885 336.591 145.48 338.317 145.48ZM362.802 139.005C364.599 139.752 365.497 141.105 365.497 143.065C365.497 144.558 365.007 145.76 364.027 146.67C363.047 147.557 361.67 148 359.897 148H351.147V130.5H359.197C360.924 130.5 362.265 130.932 363.222 131.795C364.202 132.658 364.692 133.813 364.692 135.26C364.692 136.94 364.062 138.188 362.802 139.005ZM359.057 133.23H354.122V137.815H359.057C360.83 137.815 361.717 137.033 361.717 135.47C361.717 133.977 360.83 133.23 359.057 133.23ZM354.122 145.235H359.722C360.609 145.235 361.285 145.025 361.752 144.605C362.242 144.185 362.487 143.59 362.487 142.82C362.487 142.097 362.242 141.537 361.752 141.14C361.285 140.72 360.609 140.51 359.722 140.51H354.122V145.235ZM383.274 133.51V130.5H386.319V148H383.274V144.99C381.78 147.3 379.575 148.455 376.659 148.455C374.185 148.455 372.097 147.568 370.394 145.795C368.667 143.998 367.804 141.817 367.804 139.25C367.804 136.707 368.667 134.537 370.394 132.74C372.12 130.943 374.209 130.045 376.659 130.045C379.575 130.045 381.78 131.2 383.274 133.51ZM377.044 145.515C378.817 145.515 380.299 144.92 381.489 143.73C382.679 142.493 383.274 141 383.274 139.25C383.274 137.477 382.679 135.995 381.489 134.805C380.299 133.592 378.817 132.985 377.044 132.985C375.294 132.985 373.824 133.592 372.634 134.805C371.444 135.995 370.849 137.477 370.849 139.25C370.849 141 371.444 142.493 372.634 143.73C373.824 144.92 375.294 145.515 377.044 145.515ZM403.042 137.78V130.5H406.087V148H403.042V140.685H393.977V148H390.932V130.5H393.977V137.78H403.042ZM413.732 142.785L423.427 130.5H425.877V148H422.867V135.715L413.172 148H410.722V130.5H413.732V142.785ZM433.522 142.785L443.217 130.5H445.667V148H442.657V135.715L432.962 148H430.512V130.5H433.522V142.785Z" fill="white"/>
<path d="M89.9585 76.3333C66.9585 76.3333 48.3335 95 48.3335 118C48.3335 141 66.9585 159.667 89.9585 159.667C113 159.667 131.667 141 131.667 118C131.667 95 113 76.3333 89.9585 76.3333ZM75.4168 101.333C78.8752 101.333 81.6668 104.125 81.6668 107.583C81.6668 111.042 78.8752 113.833 75.4168 113.833C71.9585 113.833 69.1668 111.042 69.1668 107.583C69.1668 104.125 71.9585 101.333 75.4168 101.333ZM109.625 129.333C105.833 137.458 98.5002 143 90.0002 143C81.5002 143 74.1668 137.458 70.3752 129.333C69.7085 127.958 70.7085 126.333 72.2502 126.333H107.75C109.292 126.333 110.292 127.958 109.625 129.333ZM104.584 113.833C101.125 113.833 98.3335 111.042 98.3335 107.583C98.3335 104.125 101.125 101.333 104.584 101.333C108.042 101.333 110.834 104.125 110.834 107.583C110.834 111.042 108.042 113.833 104.584 113.833Z" fill="black"/>
<path d="M89.9585 76.3333C66.9585 76.3333 48.3335 95 48.3335 118C48.3335 141 66.9585 159.667 89.9585 159.667C113 159.667 131.667 141 131.667 118C131.667 95 113 76.3333 89.9585 76.3333ZM75.4168 101.333C78.8752 101.333 81.6668 104.125 81.6668 107.583C81.6668 111.042 78.8752 113.833 75.4168 113.833C71.9585 113.833 69.1668 111.042 69.1668 107.583C69.1668 104.125 71.9585 101.333 75.4168 101.333ZM109.625 129.333C105.833 137.458 98.5002 143 90.0002 143C81.5002 143 74.1668 137.458 70.3752 129.333C69.7085 127.958 70.7085 126.333 72.2502 126.333H107.75C109.292 126.333 110.292 127.958 109.625 129.333ZM104.584 113.833C101.125 113.833 98.3335 111.042 98.3335 107.583C98.3335 104.125 101.125 101.333 104.584 101.333C108.042 101.333 110.834 104.125 110.834 107.583C110.834 111.042 108.042 113.833 104.584 113.833Z" fill="white"/>
</svg>
