<svg width="235" height="235" viewBox="0 0 235 235" fill="none" xmlns="http://www.w3.org/2000/svg">
<rect width="235" height="235" rx="30" fill="#4FB56B"/>
<path d="M79.3677 172H76.2677L75.0427 168.475H67.5927L66.3677 172H63.2427L69.5927 154.5H73.0427L79.3677 172ZM71.3177 157.875L68.5427 165.775H74.0927L71.3177 157.875ZM89.4995 164.475V159.5H92.1995V172H89.4995V167.025H83.7745V172H81.0745V159.5H83.7745V164.475H89.4995ZM106.332 159.5V169.45H108.007V175.35H105.357V172H96.7823V175.35H94.1323V169.45H95.6573C96.424 168.383 96.8073 166.875 96.8073 164.925V159.5H106.332ZM98.6323 169.45H103.682V161.975H99.4573V164.925C99.4573 166.725 99.1823 168.233 98.6323 169.45ZM121.787 166.9H111.837C112.037 167.833 112.487 168.558 113.187 169.075C113.904 169.592 114.787 169.85 115.837 169.85C117.254 169.85 118.329 169.333 119.062 168.3L121.287 169.6C120.071 171.417 118.246 172.325 115.812 172.325C113.796 172.325 112.154 171.708 110.887 170.475C109.637 169.225 109.012 167.65 109.012 165.75C109.012 163.9 109.629 162.342 110.862 161.075C112.079 159.808 113.662 159.175 115.612 159.175C117.429 159.175 118.929 159.817 120.112 161.1C121.296 162.383 121.887 163.942 121.887 165.775C121.887 166.108 121.854 166.483 121.787 166.9ZM111.812 164.7H119.162C118.979 163.717 118.562 162.958 117.912 162.425C117.279 161.892 116.504 161.625 115.587 161.625C114.587 161.625 113.754 161.9 113.087 162.45C112.421 163 111.996 163.75 111.812 164.7ZM122.45 159.5H133.325V162.1H129.25V172H126.55V162.1H122.45V159.5ZM146.738 166.9H136.788C136.988 167.833 137.438 168.558 138.138 169.075C138.855 169.592 139.738 169.85 140.788 169.85C142.205 169.85 143.28 169.333 144.013 168.3L146.238 169.6C145.022 171.417 143.197 172.325 140.763 172.325C138.747 172.325 137.105 171.708 135.838 170.475C134.588 169.225 133.963 167.65 133.963 165.75C133.963 163.9 134.58 162.342 135.813 161.075C137.03 159.808 138.613 159.175 140.563 159.175C142.38 159.175 143.88 159.817 145.063 161.1C146.247 162.383 146.838 163.942 146.838 165.775C146.838 166.108 146.805 166.483 146.738 166.9ZM136.763 164.7H144.113C143.93 163.717 143.513 162.958 142.863 162.425C142.23 161.892 141.455 161.625 140.538 161.625C139.538 161.625 138.705 161.9 138.038 162.45C137.372 163 136.947 163.75 136.763 164.7ZM154.564 165.625L160.264 172H157.039L151.914 166.225V172H149.214V159.5H151.914V165.025L156.764 159.5H160.064L154.564 165.625ZM160.755 159.5H171.63V162.1H167.555V172H164.855V162.1H160.755V159.5Z" fill="white"/>
<path d="M131.667 90.182C135.492 90.182 139.069 91.0674 142.292 92.5904V77.3612C142.292 74.4216 140.45 71.7654 137.688 70.7383L116.438 62.7695C114.844 62.1674 113.073 62.1674 111.479 62.7695L90.2292 70.7383C87.4667 71.8008 85.625 74.4216 85.625 77.3966V94.0424C85.625 111.928 97.7021 128.609 113.958 132.682C114.065 132.647 114.135 132.611 114.242 132.611C109.708 128.113 106.875 121.88 106.875 114.974C106.875 101.267 117.96 90.182 131.667 90.182Z" fill="black"/>
<path d="M131.667 90.182C135.492 90.182 139.069 91.0674 142.292 92.5904V77.3612C142.292 74.4216 140.45 71.7654 137.688 70.7383L116.438 62.7695C114.844 62.1674 113.073 62.1674 111.479 62.7695L90.2292 70.7383C87.4667 71.8008 85.625 74.4216 85.625 77.3966V94.0424C85.625 111.928 97.7021 128.609 113.958 132.682C114.065 132.647 114.135 132.611 114.242 132.611C109.708 128.113 106.875 121.88 106.875 114.974C106.875 101.267 117.96 90.182 131.667 90.182Z" fill="white"/>
<path d="M131.667 97.2654C121.892 97.2654 113.958 105.199 113.958 114.974C113.958 124.749 121.892 132.682 131.667 132.682C141.442 132.682 149.375 124.749 149.375 114.974C149.375 105.199 141.442 97.2654 131.667 97.2654ZM140.521 116.745H133.438V123.828C133.438 124.82 132.658 125.599 131.667 125.599C130.675 125.599 129.896 124.82 129.896 123.828V116.745H122.813C121.821 116.745 121.042 115.965 121.042 114.974C121.042 113.982 121.821 113.203 122.813 113.203H129.896V106.12C129.896 105.128 130.675 104.349 131.667 104.349C132.658 104.349 133.438 105.128 133.438 106.12V113.203H140.521C141.513 113.203 142.292 113.982 142.292 114.974C142.292 115.965 141.513 116.745 140.521 116.745Z" fill="black"/>
<path d="M131.667 97.2654C121.892 97.2654 113.958 105.199 113.958 114.974C113.958 124.749 121.892 132.682 131.667 132.682C141.442 132.682 149.375 124.749 149.375 114.974C149.375 105.199 141.442 97.2654 131.667 97.2654ZM140.521 116.745H133.438V123.828C133.438 124.82 132.658 125.599 131.667 125.599C130.675 125.599 129.896 124.82 129.896 123.828V116.745H122.813C121.821 116.745 121.042 115.965 121.042 114.974C121.042 113.982 121.821 113.203 122.813 113.203H129.896V106.12C129.896 105.128 130.675 104.349 131.667 104.349C132.658 104.349 133.438 105.128 133.438 106.12V113.203H140.521C141.513 113.203 142.292 113.982 142.292 114.974C142.292 115.965 141.513 116.745 140.521 116.745Z" fill="white"/>
</svg>
