<svg width="235" height="235" viewBox="0 0 235 235" fill="none" xmlns="http://www.w3.org/2000/svg">
<rect width="235" height="235" rx="30" fill="#4FB56B"/>
<path d="M138.75 85.1042H135.208V78.0208C135.208 68.2458 127.275 60.3125 117.5 60.3125C107.725 60.3125 99.7915 68.2458 99.7915 78.0208V85.1042H96.2498C92.354 85.1042 89.1665 88.2917 89.1665 92.1875V127.604C89.1665 131.5 92.354 134.688 96.2498 134.688H138.75C142.646 134.688 145.833 131.5 145.833 127.604V92.1875C145.833 88.2917 142.646 85.1042 138.75 85.1042ZM117.5 116.979C113.604 116.979 110.417 113.792 110.417 109.896C110.417 106 113.604 102.813 117.5 102.813C121.396 102.813 124.583 106 124.583 109.896C124.583 113.792 121.396 116.979 117.5 116.979ZM106.875 85.1042V78.0208C106.875 72.1417 111.621 67.3958 117.5 67.3958C123.379 67.3958 128.125 72.1417 128.125 78.0208V85.1042H106.875Z" fill="black"/>
<path d="M138.75 85.1042H135.208V78.0208C135.208 68.2458 127.275 60.3125 117.5 60.3125C107.725 60.3125 99.7915 68.2458 99.7915 78.0208V85.1042H96.2498C92.354 85.1042 89.1665 88.2917 89.1665 92.1875V127.604C89.1665 131.5 92.354 134.688 96.2498 134.688H138.75C142.646 134.688 145.833 131.5 145.833 127.604V92.1875C145.833 88.2917 142.646 85.1042 138.75 85.1042ZM117.5 116.979C113.604 116.979 110.417 113.792 110.417 109.896C110.417 106 113.604 102.813 117.5 102.813C121.396 102.813 124.583 106 124.583 109.896C124.583 113.792 121.396 116.979 117.5 116.979ZM106.875 85.1042V78.0208C106.875 72.1417 111.621 67.3958 117.5 67.3958C123.379 67.3958 128.125 72.1417 128.125 78.0208V85.1042H106.875Z" fill="white"/>
<path d="M55.25 172H52.15L50.925 168.475H43.475L42.25 172H39.125L45.475 154.5H48.925L55.25 172ZM47.2 157.875L44.425 165.775H49.975L47.2 157.875ZM65.3818 164.475V159.5H68.0818V172H65.3818V167.025H59.6568V172H56.9568V159.5H59.6568V164.475H65.3818ZM81.7896 170.425C80.523 171.692 78.9646 172.325 77.1146 172.325C75.2646 172.325 73.7063 171.692 72.4396 170.425C71.1563 169.142 70.5146 167.583 70.5146 165.75C70.5146 163.917 71.1563 162.358 72.4396 161.075C73.7063 159.808 75.2646 159.175 77.1146 159.175C78.9646 159.175 80.523 159.808 81.7896 161.075C83.073 162.358 83.7146 163.917 83.7146 165.75C83.7146 167.583 83.073 169.142 81.7896 170.425ZM73.2146 165.75C73.2146 166.883 73.5896 167.825 74.3396 168.575C75.0896 169.325 76.0146 169.7 77.1146 169.7C78.2146 169.7 79.1396 169.325 79.8896 168.575C80.6396 167.825 81.0146 166.883 81.0146 165.75C81.0146 164.617 80.6396 163.675 79.8896 162.925C79.1396 162.175 78.2146 161.8 77.1146 161.8C76.0146 161.8 75.0896 162.175 74.3396 162.925C73.5896 163.675 73.2146 164.617 73.2146 165.75ZM94.5811 164.475V159.5H97.2811V172H94.5811V167.025H88.8561V172H86.1561V159.5H88.8561V164.475H94.5811ZM103.064 167.425L109.464 159.5H111.539V172H108.889V164.05L102.489 172H100.414V159.5H103.064V167.425ZM124.672 159.5H127.422V172H124.797V163.775L121.197 169.5H120.872L117.297 163.8V172H114.672V159.5H117.422L121.047 165.275L124.672 159.5ZM138.966 164.475V159.5H141.666V172H138.966V167.025H133.241V172H130.541V159.5H133.241V164.475H138.966ZM155.374 170.425C154.107 171.692 152.549 172.325 150.699 172.325C148.849 172.325 147.29 171.692 146.024 170.425C144.74 169.142 144.099 167.583 144.099 165.75C144.099 163.917 144.74 162.358 146.024 161.075C147.29 159.808 148.849 159.175 150.699 159.175C152.549 159.175 154.107 159.808 155.374 161.075C156.657 162.358 157.299 163.917 157.299 165.75C157.299 167.583 156.657 169.142 155.374 170.425ZM146.799 165.75C146.799 166.883 147.174 167.825 147.924 168.575C148.674 169.325 149.599 169.7 150.699 169.7C151.799 169.7 152.724 169.325 153.474 168.575C154.224 167.825 154.599 166.883 154.599 165.75C154.599 164.617 154.224 163.675 153.474 162.925C152.724 162.175 151.799 161.8 150.699 161.8C149.599 161.8 148.674 162.175 147.924 162.925C147.174 163.675 146.799 164.617 146.799 165.75ZM165.64 172.325C163.757 172.325 162.182 171.692 160.915 170.425C159.665 169.142 159.04 167.583 159.04 165.75C159.04 163.883 159.665 162.325 160.915 161.075C162.182 159.808 163.757 159.175 165.64 159.175C166.857 159.175 167.965 159.467 168.965 160.05C169.965 160.633 170.715 161.417 171.215 162.4L168.89 163.75C168.607 163.15 168.173 162.683 167.59 162.35C167.023 162 166.365 161.825 165.615 161.825C164.515 161.825 163.59 162.2 162.84 162.95C162.107 163.717 161.74 164.65 161.74 165.75C161.74 166.85 162.107 167.783 162.84 168.55C163.59 169.3 164.515 169.675 165.615 169.675C166.348 169.675 167.007 169.508 167.59 169.175C168.19 168.825 168.64 168.35 168.94 167.75L171.265 169.075C170.732 170.075 169.957 170.867 168.94 171.45C167.94 172.033 166.84 172.325 165.64 172.325ZM171.77 159.5H182.645V162.1H178.57V172H175.87V162.1H171.77V159.5ZM187.171 163.75H189.921C191.271 163.75 192.363 164.133 193.196 164.9C194.046 165.65 194.471 166.642 194.471 167.875C194.471 169.092 194.046 170.083 193.196 170.85C192.363 171.617 191.271 172 189.921 172H184.471V159.5H187.171V163.75ZM187.171 169.575H189.946C190.48 169.575 190.921 169.417 191.271 169.1C191.638 168.783 191.821 168.375 191.821 167.875C191.821 167.375 191.646 166.967 191.296 166.65C190.946 166.333 190.496 166.175 189.946 166.175H187.171V169.575Z" fill="white"/>
</svg>
