<svg width="490" height="235" viewBox="0 0 490 235" fill="none" xmlns="http://www.w3.org/2000/svg">
<rect width="490" height="235" rx="30" fill="#4FB56B"/>
<path d="M181.33 93.75C181.33 90.2033 182.555 87.205 185.005 84.755C187.455 82.2817 190.453 81.045 194 81.045C197.547 81.045 200.545 82.2817 202.995 84.755C205.468 87.205 206.705 90.2033 206.705 93.75C206.705 97.2733 205.468 100.272 202.995 102.745C200.545 105.218 197.547 106.455 194 106.455C190.453 106.455 187.455 105.218 185.005 102.745C182.555 100.248 181.33 97.25 181.33 93.75ZM203.45 93.75C203.45 91.0433 202.54 88.78 200.72 86.96C198.947 85.1167 196.707 84.195 194 84.195C191.317 84.195 189.065 85.1167 187.245 86.96C185.448 88.8033 184.55 91.0667 184.55 93.75C184.55 96.41 185.448 98.6733 187.245 100.54C189.065 102.36 191.317 103.27 194 103.27C196.707 103.27 198.947 102.36 200.72 100.54C202.54 98.6733 203.45 96.41 203.45 93.75ZM208.343 88.5H223.323V91.44H217.373V106H214.328V91.44H208.343V88.5ZM234.826 97.04C236.763 97.8567 237.731 99.245 237.731 101.205C237.731 102.722 237.136 103.982 235.946 104.985C234.756 105.965 233.111 106.455 231.011 106.455C227.511 106.455 225.166 105.055 223.976 102.255L226.531 100.75C227.185 102.663 228.69 103.62 231.046 103.62C232.19 103.62 233.088 103.375 233.741 102.885C234.395 102.395 234.721 101.742 234.721 100.925C234.721 100.225 234.453 99.6533 233.916 99.21C233.403 98.7667 232.703 98.545 231.816 98.545H229.261V95.78H231.151C232.038 95.78 232.726 95.57 233.216 95.15C233.706 94.7067 233.951 94.1117 233.951 93.365C233.951 92.595 233.66 91.9883 233.076 91.545C232.493 91.0783 231.711 90.845 230.731 90.845C228.771 90.845 227.441 91.6733 226.741 93.33L224.256 91.895C225.493 89.3283 227.651 88.045 230.731 88.045C232.598 88.045 234.091 88.535 235.211 89.515C236.355 90.4717 236.926 91.6733 236.926 93.12C236.926 94.8933 236.226 96.2 234.826 97.04ZM244.076 94.8H248.416C250.166 94.8 251.612 95.325 252.756 96.375C253.922 97.4017 254.506 98.7433 254.506 100.4C254.506 102.057 253.922 103.41 252.756 104.46C251.589 105.487 250.142 106 248.416 106H241.031V88.5H244.076V94.8ZM256.781 106V88.5H259.826V106H256.781ZM244.076 103.165H248.416C249.302 103.165 250.037 102.908 250.621 102.395C251.204 101.882 251.496 101.217 251.496 100.4C251.496 99.5833 251.192 98.9183 250.586 98.405C250.002 97.8683 249.279 97.6 248.416 97.6H244.076V103.165ZM276.133 97.005C277.93 97.7517 278.828 99.105 278.828 101.065C278.828 102.558 278.338 103.76 277.358 104.67C276.378 105.557 275.001 106 273.228 106H264.478V88.5H272.528C274.255 88.5 275.596 88.9317 276.553 89.795C277.533 90.6583 278.023 91.8133 278.023 93.26C278.023 94.94 277.393 96.1883 276.133 97.005ZM272.388 91.23H267.453V95.815H272.388C274.161 95.815 275.048 95.0333 275.048 93.47C275.048 91.9767 274.161 91.23 272.388 91.23ZM267.453 103.235H273.053C273.94 103.235 274.616 103.025 275.083 102.605C275.573 102.185 275.818 101.59 275.818 100.82C275.818 100.097 275.573 99.5367 275.083 99.14C274.616 98.72 273.94 98.51 273.053 98.51H267.453V103.235ZM292.73 96.865V88.5H295.775V106H292.73V99.7C291.306 100.307 289.731 100.61 288.005 100.61C285.741 100.61 284.003 100.073 282.79 99C281.576 97.9267 280.97 96.3633 280.97 94.31V88.5H284.015V94.135C284.015 95.4183 284.353 96.3517 285.03 96.935C285.73 97.495 286.791 97.775 288.215 97.775C289.825 97.775 291.33 97.4717 292.73 96.865ZM303.411 100.785L313.106 88.5H315.556V106H312.546V93.715L302.851 106H300.401V88.5H303.411V100.785ZM331.846 97.005C333.643 97.7517 334.541 99.105 334.541 101.065C334.541 102.558 334.051 103.76 333.071 104.67C332.091 105.557 330.714 106 328.941 106H320.191V88.5H328.241C329.968 88.5 331.309 88.9317 332.266 89.795C333.246 90.6583 333.736 91.8133 333.736 93.26C333.736 94.94 333.106 96.1883 331.846 97.005ZM328.101 91.23H323.166V95.815H328.101C329.874 95.815 330.761 95.0333 330.761 93.47C330.761 91.9767 329.874 91.23 328.101 91.23ZM323.166 103.235H328.766C329.653 103.235 330.329 103.025 330.796 102.605C331.286 102.185 331.531 101.59 331.531 100.82C331.531 100.097 331.286 99.5367 330.796 99.14C330.329 98.72 329.653 98.51 328.766 98.51H323.166V103.235ZM352.318 91.51V88.5H355.363V106H352.318V102.99C350.824 105.3 348.619 106.455 345.703 106.455C343.229 106.455 341.141 105.568 339.438 103.795C337.711 101.998 336.848 99.8167 336.848 97.25C336.848 94.7067 337.711 92.5367 339.438 90.74C341.164 88.9433 343.253 88.045 345.703 88.045C348.619 88.045 350.824 89.2 352.318 91.51ZM346.088 103.515C347.861 103.515 349.343 102.92 350.533 101.73C351.723 100.493 352.318 99 352.318 97.25C352.318 95.4767 351.723 93.995 350.533 92.805C349.343 91.5917 347.861 90.985 346.088 90.985C344.338 90.985 342.868 91.5917 341.678 92.805C340.488 93.995 339.893 95.4767 339.893 97.25C339.893 99 340.488 100.493 341.678 101.73C342.868 102.92 344.338 103.515 346.088 103.515ZM365.611 88.5H373.066V106H370.056V99.7H367.501L362.601 106H358.891L364.001 99.525C362.671 99.1983 361.598 98.545 360.781 97.565C359.988 96.585 359.591 95.4417 359.591 94.135C359.591 92.525 360.163 91.1833 361.306 90.11C362.449 89.0367 363.884 88.5 365.611 88.5ZM365.716 96.97H370.056V91.335H365.716C364.829 91.335 364.083 91.6033 363.476 92.14C362.893 92.6533 362.601 93.33 362.601 94.17C362.601 94.9867 362.893 95.6633 363.476 96.2C364.083 96.7133 364.829 96.97 365.716 96.97ZM180.63 123.5H198.305V126.58H191.06V148H187.84V126.58H180.63V123.5ZM214.833 140.65H200.168C200.471 142.19 201.183 143.403 202.303 144.29C203.423 145.153 204.823 145.585 206.503 145.585C208.813 145.585 210.493 144.733 211.543 143.03L214.133 144.5C212.406 147.137 209.839 148.455 206.433 148.455C203.679 148.455 201.416 147.592 199.643 145.865C197.916 144.092 197.053 141.887 197.053 139.25C197.053 136.59 197.904 134.397 199.608 132.67C201.311 130.92 203.516 130.045 206.223 130.045C208.789 130.045 210.878 130.955 212.488 132.775C214.121 134.548 214.938 136.718 214.938 139.285C214.938 139.728 214.903 140.183 214.833 140.65ZM206.223 132.915C204.613 132.915 203.259 133.37 202.163 134.28C201.089 135.19 200.424 136.427 200.168 137.99H211.858C211.601 136.38 210.959 135.132 209.933 134.245C208.906 133.358 207.669 132.915 206.223 132.915ZM226.123 138.97L232.808 148H229.238L224.338 141.385L219.403 148H215.833L222.553 139.005L216.218 130.5H219.823L224.338 136.59L228.853 130.5H232.423L226.123 138.97ZM237.555 148.385C236.925 148.385 236.389 148.163 235.945 147.72C235.502 147.277 235.28 146.74 235.28 146.11C235.28 145.48 235.502 144.943 235.945 144.5C236.389 144.057 236.925 143.835 237.555 143.835C238.209 143.835 238.745 144.057 239.165 144.5C239.609 144.943 239.83 145.48 239.83 146.11C239.83 146.74 239.609 147.277 239.165 147.72C238.745 148.163 238.209 148.385 237.555 148.385ZM253.206 123.5H270.986V148H267.731V126.58H256.461V148H253.206V123.5ZM290.698 145.795C288.925 147.568 286.743 148.455 284.153 148.455C281.563 148.455 279.381 147.568 277.608 145.795C275.835 144.022 274.948 141.84 274.948 139.25C274.948 136.66 275.835 134.478 277.608 132.705C279.381 130.932 281.563 130.045 284.153 130.045C286.743 130.045 288.925 130.932 290.698 132.705C292.495 134.502 293.393 136.683 293.393 139.25C293.393 141.817 292.495 143.998 290.698 145.795ZM284.153 145.48C285.903 145.48 287.373 144.885 288.563 143.695C289.753 142.505 290.348 141.023 290.348 139.25C290.348 137.477 289.753 135.995 288.563 134.805C287.373 133.615 285.903 133.02 284.153 133.02C282.426 133.02 280.968 133.615 279.778 134.805C278.588 135.995 277.993 137.477 277.993 139.25C277.993 141.023 278.588 142.505 279.778 143.695C280.968 144.885 282.426 145.48 284.153 145.48ZM311.349 130.5V145.095H313.764V152.69H310.754V148H297.629V152.69H294.619V145.095H296.754C297.874 143.555 298.434 141.397 298.434 138.62V130.5H311.349ZM300.219 145.095H308.339V133.335H301.444V138.62C301.444 141.187 301.036 143.345 300.219 145.095ZM332.199 130.5V145.095H334.614V152.69H331.604V148H318.479V152.69H315.469V145.095H317.604C318.724 143.555 319.284 141.397 319.284 138.62V130.5H332.199ZM321.069 145.095H329.189V133.335H322.294V138.62C322.294 141.187 321.886 143.345 321.069 145.095ZM354.012 140.65H339.347C339.651 142.19 340.362 143.403 341.482 144.29C342.602 145.153 344.002 145.585 345.682 145.585C347.992 145.585 349.672 144.733 350.722 143.03L353.312 144.5C351.586 147.137 349.019 148.455 345.612 148.455C342.859 148.455 340.596 147.592 338.822 145.865C337.096 144.092 336.232 141.887 336.232 139.25C336.232 136.59 337.084 134.397 338.787 132.67C340.491 130.92 342.696 130.045 345.402 130.045C347.969 130.045 350.057 130.955 351.667 132.775C353.301 134.548 354.117 136.718 354.117 139.285C354.117 139.728 354.082 140.183 354.012 140.65ZM345.402 132.915C343.792 132.915 342.439 133.37 341.342 134.28C340.269 135.19 339.604 136.427 339.347 137.99H351.037C350.781 136.38 350.139 135.132 349.112 134.245C348.086 133.358 346.849 132.915 345.402 132.915ZM367.278 130.045C369.728 130.045 371.816 130.943 373.543 132.74C375.269 134.537 376.133 136.707 376.133 139.25C376.133 141.817 375.269 143.998 373.543 145.795C371.839 147.568 369.751 148.455 367.278 148.455C364.384 148.455 362.179 147.3 360.663 144.99V155H357.618V130.5H360.663V133.51C362.179 131.2 364.384 130.045 367.278 130.045ZM366.893 145.515C368.643 145.515 370.113 144.92 371.303 143.73C372.493 142.493 373.088 141 373.088 139.25C373.088 137.477 372.493 135.995 371.303 134.805C370.113 133.592 368.643 132.985 366.893 132.985C365.119 132.985 363.638 133.592 362.448 134.805C361.258 135.995 360.663 137.477 360.663 139.25C360.663 141 361.258 142.493 362.448 143.73C363.638 144.92 365.119 145.515 366.893 145.515ZM392.54 138.97L399.89 148H396.32L389.775 139.705V148H386.765V139.705L380.22 148H376.685L384 138.97L377.035 130.5H380.57L386.765 138.235V130.5H389.775V138.235L395.97 130.5H399.54L392.54 138.97ZM408.963 138.97L417.608 148H413.828L405.848 139.705V148H402.803V130.5H405.848V138.235L413.408 130.5H417.328L408.963 138.97ZM433.323 133.51V130.5H436.368V148H433.323V144.99C431.83 147.3 429.625 148.455 426.708 148.455C424.235 148.455 422.147 147.568 420.443 145.795C418.717 143.998 417.853 141.817 417.853 139.25C417.853 136.707 418.717 134.537 420.443 132.74C422.17 130.943 424.258 130.045 426.708 130.045C429.625 130.045 431.83 131.2 433.323 133.51ZM427.093 145.515C428.867 145.515 430.348 144.92 431.538 143.73C432.728 142.493 433.323 141 433.323 139.25C433.323 137.477 432.728 135.995 431.538 134.805C430.348 133.592 428.867 132.985 427.093 132.985C425.343 132.985 423.873 133.592 422.683 134.805C421.493 135.995 420.898 137.477 420.898 139.25C420.898 141 421.493 142.493 422.683 143.73C423.873 144.92 425.343 145.515 427.093 145.515Z" fill="white"/>
<path d="M87.6873 130.5C76.5623 130.5 54.354 136.083 54.354 147.167V151.333C54.354 153.625 56.229 155.5 58.5207 155.5H116.854C119.146 155.5 121.021 153.625 121.021 151.333V147.167C121.021 136.083 98.8123 130.5 87.6873 130.5Z" fill="black"/>
<path d="M87.6873 130.5C76.5623 130.5 54.354 136.083 54.354 147.167V151.333C54.354 153.625 56.229 155.5 58.5207 155.5H116.854C119.146 155.5 121.021 153.625 121.021 151.333V147.167C121.021 136.083 98.8123 130.5 87.6873 130.5Z" fill="white"/>
<path d="M69.9373 105.5H105.479C106.604 105.5 107.521 104.583 107.521 103.458V103.375C107.521 102.25 106.604 101.333 105.479 101.333H104.354C104.354 95.1667 100.979 89.875 96.0207 86.9583V90.9167C96.0207 92.0833 95.104 93 93.9373 93C92.7707 93 91.854 92.0833 91.854 90.9167V85.25C90.5207 84.9167 89.1457 84.6667 87.6873 84.6667C86.229 84.6667 84.854 84.9167 83.5207 85.25V90.9167C83.5207 92.0833 82.604 93 81.4373 93C80.2707 93 79.354 92.0833 79.354 90.9167V86.9583C74.3957 89.875 71.0207 95.1667 71.0207 101.333H69.9373C68.8123 101.333 67.8957 102.25 67.8957 103.375V103.5C67.8957 104.583 68.8123 105.5 69.9373 105.5Z" fill="black"/>
<path d="M69.9373 105.5H105.479C106.604 105.5 107.521 104.583 107.521 103.458V103.375C107.521 102.25 106.604 101.333 105.479 101.333H104.354C104.354 95.1667 100.979 89.875 96.0207 86.9583V90.9167C96.0207 92.0833 95.104 93 93.9373 93C92.7707 93 91.854 92.0833 91.854 90.9167V85.25C90.5207 84.9167 89.1457 84.6667 87.6873 84.6667C86.229 84.6667 84.854 84.9167 83.5207 85.25V90.9167C83.5207 92.0833 82.604 93 81.4373 93C80.2707 93 79.354 92.0833 79.354 90.9167V86.9583C74.3957 89.875 71.0207 95.1667 71.0207 101.333H69.9373C68.8123 101.333 67.8957 102.25 67.8957 103.375V103.5C67.8957 104.583 68.8123 105.5 69.9373 105.5Z" fill="white"/>
<path d="M87.6873 122.167C95.4373 122.167 101.896 116.833 103.771 109.667H71.604C73.479 116.833 79.9373 122.167 87.6873 122.167Z" fill="black"/>
<path d="M87.6873 122.167C95.4373 122.167 101.896 116.833 103.771 109.667H71.604C73.479 116.833 79.9373 122.167 87.6873 122.167Z" fill="white"/>
<path d="M141.771 93.9583L145.646 90.5L142.521 85.0833L137.562 86.7083C136.979 86.25 136.312 85.875 135.604 85.5833L134.562 80.5H128.312L127.271 85.5833C126.562 85.875 125.896 86.25 125.271 86.7083L120.354 85.0833L117.229 90.5L121.104 93.9583C121.021 94.6667 121.021 95.4167 121.104 96.125L117.229 99.6667L120.354 105.083L125.354 103.5C125.896 103.917 126.521 104.25 127.146 104.542L128.312 109.667H134.562L135.687 104.583C136.354 104.292 136.937 103.958 137.521 103.542L142.479 105.125L145.604 99.7083L141.729 96.1667C141.854 95.375 141.812 94.6667 141.771 93.9583ZM131.437 100.292C128.562 100.292 126.229 97.9583 126.229 95.0833C126.229 92.2083 128.562 89.875 131.437 89.875C134.312 89.875 136.646 92.2083 136.646 95.0833C136.646 97.9583 134.312 100.292 131.437 100.292Z" fill="black"/>
<path d="M141.771 93.9583L145.646 90.5L142.521 85.0833L137.562 86.7083C136.979 86.25 136.312 85.875 135.604 85.5833L134.562 80.5H128.312L127.271 85.5833C126.562 85.875 125.896 86.25 125.271 86.7083L120.354 85.0833L117.229 90.5L121.104 93.9583C121.021 94.6667 121.021 95.4167 121.104 96.125L117.229 99.6667L120.354 105.083L125.354 103.5C125.896 103.917 126.521 104.25 127.146 104.542L128.312 109.667H134.562L135.687 104.583C136.354 104.292 136.937 103.958 137.521 103.542L142.479 105.125L145.604 99.7083L141.729 96.1667C141.854 95.375 141.812 94.6667 141.771 93.9583ZM131.437 100.292C128.562 100.292 126.229 97.9583 126.229 95.0833C126.229 92.2083 128.562 89.875 131.437 89.875C134.312 89.875 136.646 92.2083 136.646 95.0833C136.646 97.9583 134.312 100.292 131.437 100.292Z" fill="white"/>
<path d="M131.021 112.958L127.479 114.125C127.062 113.792 126.604 113.542 126.104 113.333L125.354 109.667H120.896L120.146 113.292C119.646 113.5 119.146 113.792 118.729 114.083L115.229 112.917L112.979 116.792L115.729 119.25C115.687 119.792 115.687 120.292 115.729 120.792L112.979 123.333L115.229 127.208L118.812 126.083C119.229 126.375 119.646 126.625 120.104 126.833L120.854 130.5H125.312L126.104 126.875C126.562 126.667 127.021 126.417 127.437 126.125L130.979 127.25L133.229 123.375L130.479 120.833C130.521 120.292 130.521 119.792 130.479 119.292L133.229 116.833L131.021 112.958ZM123.104 123.792C121.062 123.792 119.396 122.125 119.396 120.083C119.396 118.042 121.062 116.375 123.104 116.375C125.146 116.375 126.812 118.042 126.812 120.083C126.812 122.125 125.146 123.792 123.104 123.792Z" fill="black"/>
<path d="M131.021 112.958L127.479 114.125C127.062 113.792 126.604 113.542 126.104 113.333L125.354 109.667H120.896L120.146 113.292C119.646 113.5 119.146 113.792 118.729 114.083L115.229 112.917L112.979 116.792L115.729 119.25C115.687 119.792 115.687 120.292 115.729 120.792L112.979 123.333L115.229 127.208L118.812 126.083C119.229 126.375 119.646 126.625 120.104 126.833L120.854 130.5H125.312L126.104 126.875C126.562 126.667 127.021 126.417 127.437 126.125L130.979 127.25L133.229 123.375L130.479 120.833C130.521 120.292 130.521 119.792 130.479 119.292L133.229 116.833L131.021 112.958ZM123.104 123.792C121.062 123.792 119.396 122.125 119.396 120.083C119.396 118.042 121.062 116.375 123.104 116.375C125.146 116.375 126.812 118.042 126.812 120.083C126.812 122.125 125.146 123.792 123.104 123.792Z" fill="white"/>
</svg>
