<svg width="235" height="235" viewBox="0 0 235 235" fill="none" xmlns="http://www.w3.org/2000/svg">
<rect width="235" height="235" rx="30" fill="#4FB56B"/>
<path d="M39.7275 163.25H43.4775C45.0942 163.25 46.4359 163.758 47.5025 164.775C48.5692 165.792 49.1025 167.075 49.1025 168.625C49.1025 170.175 48.5692 171.458 47.5025 172.475C46.4359 173.492 45.0942 174 43.4775 174H36.8525V156.5H47.6025V159.25H39.7275V163.25ZM39.7275 171.3H43.4775C44.2775 171.3 44.9359 171.058 45.4525 170.575C45.9692 170.075 46.2275 169.425 46.2275 168.625C46.2275 167.825 45.9692 167.183 45.4525 166.7C44.9359 166.2 44.2775 165.95 43.4775 165.95H39.7275V171.3ZM63.3766 168.9H53.4266C53.6266 169.833 54.0766 170.558 54.7766 171.075C55.4932 171.592 56.3766 171.85 57.4266 171.85C58.8432 171.85 59.9182 171.333 60.6516 170.3L62.8766 171.6C61.6599 173.417 59.8349 174.325 57.4016 174.325C55.3849 174.325 53.7432 173.708 52.4766 172.475C51.2266 171.225 50.6016 169.65 50.6016 167.75C50.6016 165.9 51.2182 164.342 52.4516 163.075C53.6682 161.808 55.2516 161.175 57.2016 161.175C59.0182 161.175 60.5182 161.817 61.7016 163.1C62.8849 164.383 63.4766 165.942 63.4766 167.775C63.4766 168.108 63.4432 168.483 63.3766 168.9ZM53.4016 166.7H60.7516C60.5682 165.717 60.1516 164.958 59.5016 164.425C58.8682 163.892 58.0932 163.625 57.1766 163.625C56.1766 163.625 55.3432 163.9 54.6766 164.45C54.0099 165 53.5849 165.75 53.4016 166.7ZM72.6332 167.6C73.9665 168.2 74.6332 169.192 74.6332 170.575C74.6332 171.658 74.1915 172.558 73.3082 173.275C72.4249 173.975 71.2249 174.325 69.7082 174.325C67.1915 174.325 65.4915 173.325 64.6082 171.325L66.8082 170.025C67.2582 171.275 68.2332 171.9 69.7332 171.9C70.4332 171.9 70.9832 171.758 71.3832 171.475C71.7832 171.175 71.9832 170.783 71.9832 170.3C71.9832 169.867 71.8249 169.525 71.5082 169.275C71.1915 169.008 70.7499 168.875 70.1832 168.875H68.4082V166.5H69.7332C70.2832 166.5 70.7082 166.375 71.0082 166.125C71.3249 165.858 71.4832 165.5 71.4832 165.05C71.4832 164.617 71.3082 164.267 70.9582 164C70.6082 163.717 70.1415 163.575 69.5582 163.575C68.3082 163.575 67.4415 164.125 66.9582 165.225L64.7582 163.975C65.6749 162.108 67.2582 161.175 69.5082 161.175C70.9082 161.175 72.0165 161.533 72.8332 162.25C73.6665 162.95 74.0832 163.808 74.0832 164.825C74.0832 166.075 73.5999 167 72.6332 167.6ZM87.4137 172.425C86.147 173.692 84.5887 174.325 82.7387 174.325C80.8887 174.325 79.3303 173.692 78.0637 172.425C76.7803 171.142 76.1387 169.583 76.1387 167.75C76.1387 165.917 76.7803 164.358 78.0637 163.075C79.3303 161.808 80.8887 161.175 82.7387 161.175C84.5887 161.175 86.147 161.808 87.4137 163.075C88.697 164.358 89.3387 165.917 89.3387 167.75C89.3387 169.583 88.697 171.142 87.4137 172.425ZM78.8387 167.75C78.8387 168.883 79.2137 169.825 79.9637 170.575C80.7137 171.325 81.6387 171.7 82.7387 171.7C83.8387 171.7 84.7637 171.325 85.5137 170.575C86.2637 169.825 86.6387 168.883 86.6387 167.75C86.6387 166.617 86.2637 165.675 85.5137 164.925C84.7637 164.175 83.8387 163.8 82.7387 163.8C81.6387 163.8 80.7137 164.175 79.9637 164.925C79.2137 165.675 78.8387 166.617 78.8387 167.75ZM91.7801 161.5H102.905V174H100.205V164.05H94.4801V174H91.7801V161.5ZM115.938 163.275V161.5H118.638V174H115.938V172.2C114.921 173.617 113.463 174.325 111.563 174.325C109.846 174.325 108.38 173.692 107.163 172.425C105.946 171.158 105.338 169.6 105.338 167.75C105.338 165.9 105.946 164.342 107.163 163.075C108.38 161.808 109.846 161.175 111.563 161.175C113.463 161.175 114.921 161.875 115.938 163.275ZM109.163 170.625C109.913 171.375 110.855 171.75 111.988 171.75C113.121 171.75 114.063 171.375 114.813 170.625C115.563 169.858 115.938 168.9 115.938 167.75C115.938 166.6 115.563 165.65 114.813 164.9C114.063 164.133 113.121 163.75 111.988 163.75C110.855 163.75 109.913 164.133 109.163 164.9C108.413 165.65 108.038 166.6 108.038 167.75C108.038 168.883 108.413 169.842 109.163 170.625ZM127.685 174.325C125.802 174.325 124.227 173.692 122.96 172.425C121.71 171.142 121.085 169.583 121.085 167.75C121.085 165.883 121.71 164.325 122.96 163.075C124.227 161.808 125.802 161.175 127.685 161.175C128.902 161.175 130.01 161.467 131.01 162.05C132.01 162.633 132.76 163.417 133.26 164.4L130.935 165.75C130.652 165.15 130.218 164.683 129.635 164.35C129.068 164 128.41 163.825 127.66 163.825C126.56 163.825 125.635 164.2 124.885 164.95C124.152 165.717 123.785 166.65 123.785 167.75C123.785 168.85 124.152 169.783 124.885 170.55C125.635 171.3 126.56 171.675 127.66 171.675C128.393 171.675 129.052 171.508 129.635 171.175C130.235 170.825 130.685 170.35 130.985 169.75L133.31 171.075C132.777 172.075 132.002 172.867 130.985 173.45C129.985 174.033 128.885 174.325 127.685 174.325ZM143.76 166.475V161.5H146.46V174H143.76V169.025H138.035V174H135.335V161.5H138.035V166.475H143.76ZM160.168 172.425C158.901 173.692 157.343 174.325 155.493 174.325C153.643 174.325 152.084 173.692 150.818 172.425C149.534 171.142 148.893 169.583 148.893 167.75C148.893 165.917 149.534 164.358 150.818 163.075C152.084 161.808 153.643 161.175 155.493 161.175C157.343 161.175 158.901 161.808 160.168 163.075C161.451 164.358 162.093 165.917 162.093 167.75C162.093 169.583 161.451 171.142 160.168 172.425ZM151.593 167.75C151.593 168.883 151.968 169.825 152.718 170.575C153.468 171.325 154.393 171.7 155.493 171.7C156.593 171.7 157.518 171.325 158.268 170.575C159.018 169.825 159.393 168.883 159.393 167.75C159.393 166.617 159.018 165.675 158.268 164.925C157.518 164.175 156.593 163.8 155.493 163.8C154.393 163.8 153.468 164.175 152.718 164.925C151.968 165.675 151.593 166.617 151.593 167.75ZM170.434 174.325C168.551 174.325 166.976 173.692 165.709 172.425C164.459 171.142 163.834 169.583 163.834 167.75C163.834 165.883 164.459 164.325 165.709 163.075C166.976 161.808 168.551 161.175 170.434 161.175C171.651 161.175 172.759 161.467 173.759 162.05C174.759 162.633 175.509 163.417 176.009 164.4L173.684 165.75C173.401 165.15 172.967 164.683 172.384 164.35C171.817 164 171.159 163.825 170.409 163.825C169.309 163.825 168.384 164.2 167.634 164.95C166.901 165.717 166.534 166.65 166.534 167.75C166.534 168.85 166.901 169.783 167.634 170.55C168.384 171.3 169.309 171.675 170.409 171.675C171.142 171.675 171.801 171.508 172.384 171.175C172.984 170.825 173.434 170.35 173.734 169.75L176.059 171.075C175.526 172.075 174.751 172.867 173.734 173.45C172.734 174.033 171.634 174.325 170.434 174.325ZM176.563 161.5H187.438V164.1H183.363V174H180.663V164.1H176.563V161.5ZM191.965 165.75H194.715C196.065 165.75 197.157 166.133 197.99 166.9C198.84 167.65 199.265 168.642 199.265 169.875C199.265 171.092 198.84 172.083 197.99 172.85C197.157 173.617 196.065 174 194.715 174H189.265V161.5H191.965V165.75ZM191.965 171.575H194.74C195.274 171.575 195.715 171.417 196.065 171.1C196.432 170.783 196.615 170.375 196.615 169.875C196.615 169.375 196.44 168.967 196.09 168.65C195.74 168.333 195.29 168.175 194.74 168.175H191.965V171.575Z" fill="white"/>
<path d="M115.375 60.3555L92.875 68.793C89.95 69.918 88 72.693 88 75.843V93.468C88 111.581 99.7375 128.606 115.863 133.781C117.25 134.231 118.75 134.231 120.137 133.781C136.262 128.606 148 111.618 148 93.468V75.843C148 72.7305 146.05 69.918 143.125 68.8305L120.625 60.393C118.937 59.718 117.063 59.718 115.375 60.3555Z" fill="black"/>
<path d="M115.375 60.3555L92.875 68.793C89.95 69.918 88 72.693 88 75.843V93.468C88 111.581 99.7375 128.606 115.863 133.781C117.25 134.231 118.75 134.231 120.137 133.781C136.262 128.606 148 111.618 148 93.468V75.843C148 72.7305 146.05 69.918 143.125 68.8305L120.625 60.393C118.937 59.718 117.063 59.718 115.375 60.3555Z" fill="white"/>
</svg>
