<svg width="25" height="21" viewBox="0 0 25 21" fill="none" xmlns="http://www.w3.org/2000/svg">
<path d="M24.7101 18.6861L22.2815 16.2576C22.839 15.4279 23.1387 14.452 23.1387 13.43C23.1387 12.0719 22.6098 10.7951 21.6495 9.83477C21.3238 9.50905 20.9611 9.23434 20.5717 9.01173V8.74856H23.0452C23.4265 8.74856 23.7607 8.56209 23.9393 8.24977C24.118 7.93745 24.1092 7.55478 23.9159 7.22628L20.4218 1.28604C20.1889 0.890075 19.7238 0.624023 19.2644 0.624023H12.3981H11.6694H4.80314C4.3436 0.624023 3.87846 0.890132 3.64572 1.28599L0.151472 7.22617C-0.041846 7.55472 -0.0506126 7.93734 0.128 8.24971C0.306669 8.56203 0.640874 8.7485 1.02208 8.7485H3.49567V13.3457C3.49567 13.9386 3.93977 14.5393 4.50672 14.7131L11.1397 16.7464C11.3816 16.8206 11.6991 16.8614 12.0337 16.8614C12.3684 16.8614 12.6858 16.8206 12.9277 16.7464L13.9508 16.4328C14.1026 16.6399 14.2719 16.8381 14.459 17.0252C15.4193 17.9855 16.6962 18.5144 18.0543 18.5144C19.0762 18.5144 20.0521 18.2147 20.8818 17.6573L23.3104 20.0858C23.5037 20.2791 23.757 20.3757 24.0102 20.3757C24.2635 20.3757 24.5168 20.2791 24.7101 20.0858C25.0967 19.6993 25.0967 19.0726 24.7101 18.6861ZM8.42115 7.19755H2.0446L4.99906 2.17497H11.3756L8.42115 7.19755ZM12.7063 2.18278H19.0631L22.0084 7.18975H15.6516L12.7063 2.18278ZM15.6588 15.8255C14.3379 14.5046 14.3379 12.3554 15.6588 11.0345C16.2986 10.3946 17.1493 10.0423 18.0543 10.0423C18.9592 10.0423 19.8099 10.3946 20.4498 11.0345C21.0896 11.6743 21.442 12.525 21.442 13.43C21.442 14.3349 21.0896 15.1856 20.4498 15.8255C19.8099 16.4653 18.9592 16.8177 18.0543 16.8177C17.1493 16.8177 16.2986 16.4653 15.6588 15.8255Z" fill="#4FB56B"/>
</svg>
