<svg width="1200" height="500" viewBox="0 0 1200 500" fill="none" xmlns="http://www.w3.org/2000/svg">
<g clip-path="url(#clip0_182_9)">
<rect width="1200" height="500" rx="30" fill="url(#paint0_radial_182_9)"/>
<path d="M28.4059 162.808L15.655 157.551C-4.63448 149.186 -27.3955 149.112 -47.7384 157.346C-102.839 179.649 -163 139.097 -163 79.6546V7.8365C-163 -64.0513 -105.565 -122.768 -33.6952 -124.355L440.904 -134.834C489.632 -135.91 525.484 -89.5061 512.143 -42.6274C506.341 -22.2415 491.899 -5.42133 472.625 3.39638L379.5 46L207.515 105.35C190.03 111.384 173.997 120.997 160.437 133.577L153.186 140.303C119.547 171.51 70.8272 180.297 28.4059 162.808Z" fill="#4FB56B"/>
<g filter="url(#filter0_d_182_9)">
<path d="M1130.59 350.192L1143.35 355.449C1163.63 363.814 1186.4 363.888 1206.74 355.654C1261.84 333.351 1322 373.903 1322 433.345V505.163C1322 577.051 1264.57 635.768 1192.7 637.355L718.096 647.834C669.368 648.91 633.516 602.506 646.857 555.627C652.659 535.242 667.101 518.421 686.375 509.604L779.5 467L951.485 407.65C968.97 401.616 985.003 392.003 998.563 379.423L1005.81 372.697C1039.45 341.49 1088.17 332.703 1130.59 350.192Z" fill="#4FB56B"/>
<path d="M1130.59 350.192L1143.35 355.449C1163.63 363.814 1186.4 363.888 1206.74 355.654C1261.84 333.351 1322 373.903 1322 433.345V505.163C1322 577.051 1264.57 635.768 1192.7 637.355L718.096 647.834C669.368 648.91 633.516 602.506 646.857 555.627C652.659 535.242 667.101 518.421 686.375 509.604L779.5 467L951.485 407.65C968.97 401.616 985.003 392.003 998.563 379.423L1005.81 372.697C1039.45 341.49 1088.17 332.703 1130.59 350.192Z" stroke="black"/>
</g>
<path d="M539.296 217L539.246 196L528.946 213.3H525.296L515.046 196.45V217H507.446V182H514.146L527.246 203.75L540.146 182H546.796L546.896 217H539.296ZM555.2 182H563.3V217H555.2V182ZM571.606 182H579.706V210.4H597.256V217H571.606V182ZM601.782 182H609.882V210.4H627.432V217H601.782V182ZM659.058 210.5V217H631.958V182H658.408V188.5H640.008V196.1H656.258V202.4H640.008V210.5H659.058ZM687.211 217L678.761 204.85L670.461 217H661.161L674.111 199.2L661.811 182H671.011L679.061 193.35L686.961 182H695.711L683.511 198.9L696.561 217H687.211Z" fill="#4FB56B"/>
<path d="M239.494 243V278H234.594V247.35H219.094L218.744 257.6C218.578 262.433 218.178 266.35 217.544 269.35C216.944 272.35 215.978 274.617 214.644 276.15C213.311 277.65 211.511 278.4 209.244 278.4C208.211 278.4 207.161 278.267 206.094 278L206.444 273.55C206.978 273.683 207.511 273.75 208.044 273.75C209.478 273.75 210.628 273.183 211.494 272.05C212.361 270.883 213.011 269.15 213.444 266.85C213.878 264.55 214.161 261.517 214.294 257.75L214.844 243H239.494ZM273.246 251.5L260.396 280.65C259.263 283.35 257.93 285.25 256.396 286.35C254.896 287.45 253.08 288 250.946 288C249.646 288 248.38 287.783 247.146 287.35C245.946 286.95 244.946 286.35 244.146 285.55L246.196 281.95C247.563 283.25 249.146 283.9 250.946 283.9C252.113 283.9 253.08 283.583 253.846 282.95C254.646 282.35 255.363 281.3 255.996 279.8L256.846 277.95L245.146 251.5H250.146L259.396 272.7L268.546 251.5H273.246ZM299.311 251.5V278H294.511V267.3C291.644 268.633 288.794 269.3 285.961 269.3C282.661 269.3 280.111 268.533 278.311 267C276.511 265.467 275.611 263.167 275.611 260.1V251.5H280.411V259.8C280.411 261.633 280.977 263.017 282.111 263.95C283.277 264.883 284.894 265.35 286.961 265.35C289.294 265.35 291.811 264.767 294.511 263.6V251.5H299.311ZM346.379 251.5V278H308.629V251.5H313.429V273.8H325.129V251.5H329.929V273.8H341.579V251.5H346.379ZM355.7 251.5H360.5V270.8L376.75 251.5H381.1V278H376.3V258.7L360.1 278H355.7V251.5ZM414.367 264.9C414.367 265.267 414.333 265.75 414.267 266.35H392.767C393.067 268.683 394.083 270.567 395.817 272C397.583 273.4 399.767 274.1 402.367 274.1C405.533 274.1 408.083 273.033 410.017 270.9L412.667 274C411.467 275.4 409.967 276.467 408.167 277.2C406.4 277.933 404.417 278.3 402.217 278.3C399.417 278.3 396.933 277.733 394.767 276.6C392.6 275.433 390.917 273.817 389.717 271.75C388.55 269.683 387.967 267.35 387.967 264.75C387.967 262.183 388.533 259.867 389.667 257.8C390.833 255.733 392.417 254.133 394.417 253C396.45 251.833 398.733 251.25 401.267 251.25C403.8 251.25 406.05 251.833 408.017 253C410.017 254.133 411.567 255.733 412.667 257.8C413.8 259.867 414.367 262.233 414.367 264.9ZM401.267 255.3C398.967 255.3 397.033 256 395.467 257.4C393.933 258.8 393.033 260.633 392.767 262.9H409.767C409.5 260.667 408.583 258.85 407.017 257.45C405.483 256.017 403.567 255.3 401.267 255.3ZM456.391 251.5V278H451.591V267.3C448.724 268.633 445.874 269.3 443.041 269.3C439.741 269.3 437.191 268.533 435.391 267C433.591 265.467 432.691 263.167 432.691 260.1V251.5H437.491V259.8C437.491 261.633 438.057 263.017 439.191 263.95C440.357 264.883 441.974 265.35 444.041 265.35C446.374 265.35 448.891 264.767 451.591 263.6V251.5H456.391ZM465.71 251.5H470.51V270.8L486.76 251.5H491.11V278H486.31V258.7L470.11 278H465.71V251.5ZM520.176 255.7H510.476V278H505.676V255.7H495.976V251.5H520.176V255.7ZM537.035 260.5C540.368 260.533 542.918 261.3 544.685 262.8C546.451 264.3 547.335 266.417 547.335 269.15C547.335 272.017 546.368 274.233 544.435 275.8C542.535 277.333 539.801 278.083 536.235 278.05L525.085 278V251.5H529.885V260.45L537.035 260.5ZM551.285 251.5H556.085V278H551.285V251.5ZM535.885 274.4C538.051 274.433 539.685 274 540.785 273.1C541.918 272.2 542.485 270.867 542.485 269.1C542.485 267.367 541.935 266.1 540.835 265.3C539.735 264.5 538.085 264.083 535.885 264.05L529.885 263.95V274.35L535.885 274.4ZM578.844 251.5H583.644V262.75H598.744V251.5H603.544V278H598.744V266.9H583.644V278H578.844V251.5ZM622.328 251.25C625.994 251.25 628.794 252.15 630.728 253.95C632.694 255.75 633.678 258.433 633.678 262V278H629.128V274.5C628.328 275.733 627.178 276.683 625.678 277.35C624.211 277.983 622.461 278.3 620.428 278.3C617.461 278.3 615.078 277.583 613.278 276.15C611.511 274.717 610.628 272.833 610.628 270.5C610.628 268.167 611.478 266.3 613.178 264.9C614.878 263.467 617.578 262.75 621.278 262.75H628.878V261.8C628.878 259.733 628.278 258.15 627.078 257.05C625.878 255.95 624.111 255.4 621.778 255.4C620.211 255.4 618.678 255.667 617.178 256.2C615.678 256.7 614.411 257.383 613.378 258.25L611.378 254.65C612.744 253.55 614.378 252.717 616.278 252.15C618.178 251.55 620.194 251.25 622.328 251.25ZM621.228 274.6C623.061 274.6 624.644 274.2 625.978 273.4C627.311 272.567 628.278 271.4 628.878 269.9V266.2H621.478C617.411 266.2 615.378 267.567 615.378 270.3C615.378 271.633 615.894 272.683 616.928 273.45C617.961 274.217 619.394 274.6 621.228 274.6ZM669.799 251.25C672.365 251.25 674.665 251.817 676.699 252.95C678.732 254.083 680.315 255.667 681.449 257.7C682.615 259.733 683.199 262.083 683.199 264.75C683.199 267.417 682.615 269.783 681.449 271.85C680.315 273.883 678.732 275.467 676.699 276.6C674.665 277.733 672.365 278.3 669.799 278.3C667.899 278.3 666.149 277.933 664.549 277.2C662.982 276.467 661.649 275.4 660.549 274V287.7H655.749V251.5H660.349V255.7C661.415 254.233 662.765 253.133 664.399 252.4C666.032 251.633 667.832 251.25 669.799 251.25ZM669.399 274.1C671.099 274.1 672.615 273.717 673.949 272.95C675.315 272.15 676.382 271.05 677.149 269.65C677.949 268.217 678.349 266.583 678.349 264.75C678.349 262.917 677.949 261.3 677.149 259.9C676.382 258.467 675.315 257.367 673.949 256.6C672.615 255.833 671.099 255.45 669.399 255.45C667.732 255.45 666.215 255.85 664.849 256.65C663.515 257.417 662.449 258.5 661.649 259.9C660.882 261.3 660.499 262.917 660.499 264.75C660.499 266.583 660.882 268.217 661.649 269.65C662.415 271.05 663.482 272.15 664.849 272.95C666.215 273.717 667.732 274.1 669.399 274.1ZM699.378 251.25C703.045 251.25 705.845 252.15 707.778 253.95C709.745 255.75 710.728 258.433 710.728 262V278H706.178V274.5C705.378 275.733 704.228 276.683 702.728 277.35C701.262 277.983 699.512 278.3 697.478 278.3C694.512 278.3 692.128 277.583 690.328 276.15C688.562 274.717 687.678 272.833 687.678 270.5C687.678 268.167 688.528 266.3 690.228 264.9C691.928 263.467 694.628 262.75 698.328 262.75H705.928V261.8C705.928 259.733 705.328 258.15 704.128 257.05C702.928 255.95 701.162 255.4 698.828 255.4C697.262 255.4 695.728 255.667 694.228 256.2C692.728 256.7 691.462 257.383 690.428 258.25L688.428 254.65C689.795 253.55 691.428 252.717 693.328 252.15C695.228 251.55 697.245 251.25 699.378 251.25ZM698.278 274.6C700.112 274.6 701.695 274.2 703.028 273.4C704.362 272.567 705.328 271.4 705.928 269.9V266.2H698.528C694.462 266.2 692.428 267.567 692.428 270.3C692.428 271.633 692.945 272.683 693.978 273.45C695.012 274.217 696.445 274.6 698.278 274.6ZM733.282 264.2C735.049 264.667 736.416 265.417 737.382 266.45C738.349 267.483 738.832 268.767 738.832 270.3C738.832 271.867 738.299 273.267 737.232 274.5C736.166 275.7 734.682 276.65 732.782 277.35C730.916 278.017 728.816 278.35 726.482 278.35C724.516 278.35 722.582 278.1 720.682 277.6C718.816 277.067 717.149 276.317 715.682 275.35L717.132 271.7C718.399 272.5 719.849 273.133 721.482 273.6C723.116 274.033 724.766 274.25 726.432 274.25C728.699 274.25 730.499 273.867 731.832 273.1C733.199 272.3 733.882 271.233 733.882 269.9C733.882 268.667 733.332 267.717 732.232 267.05C731.166 266.383 729.649 266.05 727.682 266.05H722.832V262.6H727.332C729.132 262.6 730.549 262.283 731.582 261.65C732.616 261.017 733.132 260.15 733.132 259.05C733.132 257.85 732.516 256.917 731.282 256.25C730.082 255.583 728.449 255.25 726.382 255.25C723.749 255.25 720.966 255.933 718.032 257.3L716.732 253.6C719.966 251.967 723.349 251.15 726.882 251.15C729.016 251.15 730.932 251.45 732.632 252.05C734.332 252.65 735.666 253.5 736.632 254.6C737.599 255.7 738.082 256.95 738.082 258.35C738.082 259.65 737.649 260.817 736.782 261.85C735.916 262.883 734.749 263.667 733.282 264.2ZM746.129 251.5H750.929V262.75H766.029V251.5H770.829V278H766.029V266.9H750.929V278H746.129V251.5ZM792.113 260.5C795.446 260.533 797.996 261.3 799.763 262.8C801.529 264.3 802.413 266.417 802.413 269.15C802.413 272.017 801.446 274.233 799.513 275.8C797.613 277.333 794.879 278.083 791.313 278.05L780.163 278V251.5H784.963V260.45L792.113 260.5ZM806.363 251.5H811.163V278H806.363V251.5ZM790.963 274.4C793.129 274.433 794.763 274 795.863 273.1C796.996 272.2 797.563 270.867 797.563 269.1C797.563 267.367 797.013 266.1 795.913 265.3C794.813 264.5 793.163 264.083 790.963 264.05L784.963 263.95V274.35L790.963 274.4ZM844.445 264.9C844.445 265.267 844.411 265.75 844.345 266.35H822.845C823.145 268.683 824.161 270.567 825.895 272C827.661 273.4 829.845 274.1 832.445 274.1C835.611 274.1 838.161 273.033 840.095 270.9L842.745 274C841.545 275.4 840.045 276.467 838.245 277.2C836.478 277.933 834.495 278.3 832.295 278.3C829.495 278.3 827.011 277.733 824.845 276.6C822.678 275.433 820.995 273.817 819.795 271.75C818.628 269.683 818.045 267.35 818.045 264.75C818.045 262.183 818.611 259.867 819.745 257.8C820.911 255.733 822.495 254.133 824.495 253C826.528 251.833 828.811 251.25 831.345 251.25C833.878 251.25 836.128 251.833 838.095 253C840.095 254.133 841.645 255.733 842.745 257.8C843.878 259.867 844.445 262.233 844.445 264.9ZM831.345 255.3C829.045 255.3 827.111 256 825.545 257.4C824.011 258.8 823.111 260.633 822.845 262.9H839.845C839.578 260.667 838.661 258.85 837.095 257.45C835.561 256.017 833.645 255.3 831.345 255.3ZM865.319 251.5H870.119V270.8L886.369 251.5H890.719V278H885.919V258.7L869.719 278H865.319V251.5ZM919.536 255.7H904.836V278H900.036V251.5H919.536V255.7ZM938.5 251.25C941.066 251.25 943.366 251.817 945.4 252.95C947.433 254.083 949.016 255.667 950.15 257.7C951.316 259.733 951.9 262.083 951.9 264.75C951.9 267.417 951.316 269.783 950.15 271.85C949.016 273.883 947.433 275.467 945.4 276.6C943.366 277.733 941.066 278.3 938.5 278.3C936.6 278.3 934.85 277.933 933.25 277.2C931.683 276.467 930.35 275.4 929.25 274V287.7H924.45V251.5H929.05V255.7C930.116 254.233 931.466 253.133 933.1 252.4C934.733 251.633 936.533 251.25 938.5 251.25ZM938.1 274.1C939.8 274.1 941.316 273.717 942.65 272.95C944.016 272.15 945.083 271.05 945.85 269.65C946.65 268.217 947.05 266.583 947.05 264.75C947.05 262.917 946.65 261.3 945.85 259.9C945.083 258.467 944.016 257.367 942.65 256.6C941.316 255.833 939.8 255.45 938.1 255.45C936.433 255.45 934.916 255.85 933.55 256.65C932.216 257.417 931.15 258.5 930.35 259.9C929.583 261.3 929.2 262.917 929.2 264.75C929.2 266.583 929.583 268.217 930.35 269.65C931.116 271.05 932.183 272.15 933.55 272.95C934.916 273.717 936.433 274.1 938.1 274.1ZM970.824 260.5C974.157 260.533 976.707 261.3 978.474 262.8C980.24 264.3 981.124 266.417 981.124 269.15C981.124 272.017 980.157 274.233 978.224 275.8C976.324 277.333 973.59 278.083 970.024 278.05L958.874 278V251.5H963.674V260.45L970.824 260.5ZM985.074 251.5H989.874V278H985.074V251.5ZM969.674 274.4C971.84 274.433 973.474 274 974.574 273.1C975.707 272.2 976.274 270.867 976.274 269.1C976.274 267.367 975.724 266.1 974.624 265.3C973.524 264.5 971.874 264.083 969.674 264.05L963.674 263.95V274.35L969.674 274.4Z" fill="white"/>
</g>
<defs>
<filter id="filter0_d_182_9" x="639.545" y="340.814" width="686.955" height="315.538" filterUnits="userSpaceOnUse" color-interpolation-filters="sRGB">
<feFlood flood-opacity="0" result="BackgroundImageFix"/>
<feColorMatrix in="SourceAlpha" type="matrix" values="0 0 0 0 0 0 0 0 0 0 0 0 0 0 0 0 0 0 127 0" result="hardAlpha"/>
<feOffset dy="4"/>
<feGaussianBlur stdDeviation="2"/>
<feComposite in2="hardAlpha" operator="out"/>
<feColorMatrix type="matrix" values="0 0 0 0 0 0 0 0 0 0 0 0 0 0 0 0 0 0 0.25 0"/>
<feBlend mode="normal" in2="BackgroundImageFix" result="effect1_dropShadow_182_9"/>
<feBlend mode="normal" in="SourceGraphic" in2="effect1_dropShadow_182_9" result="shape"/>
</filter>
<radialGradient id="paint0_radial_182_9" cx="0" cy="0" r="1" gradientUnits="userSpaceOnUse" gradientTransform="translate(107 89.0001) rotate(20.2273) scale(1142.46 2741.9)">
<stop stop-color="#222222"/>
<stop offset="1" stop-color="#2F2F2F"/>
</radialGradient>
<clipPath id="clip0_182_9">
<rect width="1200" height="500" rx="25" fill="white"/>
</clipPath>
</defs>
</svg>
