<svg width="25" height="30" viewBox="0 0 25 30" fill="none" xmlns="http://www.w3.org/2000/svg">
<path d="M15.15 23.5393C15.5553 23.216 15.5553 22.6915 15.1501 22.3681C14.7449 22.0446 14.0879 22.0446 13.6828 22.368C13.0297 22.8892 11.9673 22.8892 11.3141 22.368C10.9092 22.0447 10.2519 22.0446 9.84696 22.3681C9.44178 22.6915 9.44178 23.2159 9.84709 23.5393C10.5779 24.1227 11.5382 24.4144 12.4984 24.4144C13.4588 24.4144 14.4192 24.1227 15.15 23.5393V23.5393Z" fill="#4FB56B"/>
<path d="M7.7373 24.2514C7.33212 24.5747 7.33199 25.099 7.73718 25.4226C9.0088 26.4379 10.6996 26.9971 12.4984 26.9971C14.2972 26.9971 15.9881 26.4379 17.26 25.4226C17.6651 25.0991 17.6651 24.5748 17.2598 24.2514C16.8549 23.9281 16.1976 23.9279 15.7926 24.2515C14.9127 24.9538 13.7429 25.3406 12.4984 25.3406C11.254 25.3406 10.0843 24.9538 9.20456 24.2515C8.7995 23.9279 8.14249 23.9279 7.7373 24.2514Z" fill="#4FB56B"/>
<path d="M18.4177 26.3814C16.8363 27.6469 14.7341 28.3438 12.498 28.3437C10.2621 28.3436 8.16024 27.6469 6.57948 26.3815C6.17493 26.0577 5.51767 26.057 5.11223 26.3798C4.70654 26.7029 4.70565 27.2273 5.1102 27.5511C7.08312 29.1302 9.70671 29.9998 12.498 30C12.4981 30 12.4982 30 12.4984 30C15.2896 30 17.9135 29.1304 19.8867 27.5511C20.2914 27.2273 20.2905 26.703 19.885 26.38C19.4793 26.057 18.8224 26.0577 18.4177 26.3814V26.3814Z" fill="#4FB56B"/>
<path d="M24.9975 16.342C24.956 11.1989 20.014 6.96715 13.7195 6.47796V0.974341C13.7195 0.436261 13.173 0 12.4989 0C11.825 0 11.2783 0.43616 11.2783 0.974341V6.47806C4.95715 6.96938 0 11.2348 0 16.4074C0 16.9454 0.546534 17.3818 1.22062 17.3818H6.56853C7.13481 19.581 9.57859 21.2399 12.4988 21.2399C15.419 21.2399 17.863 19.581 18.4292 17.3818H23.7771C23.7781 17.3818 23.779 17.3818 23.7794 17.3818C24.4536 17.3818 25 16.9455 25 16.4074C25.0001 16.3854 24.9992 16.3636 24.9975 16.342V16.342ZM12.4988 19.2913C10.935 19.2913 9.60035 18.4937 9.09861 17.3817H15.8991C15.3974 18.4938 14.0628 19.2913 12.4988 19.2913V19.2913ZM2.51489 15.4331C3.11888 11.4639 7.366 8.37907 12.4988 8.37907C17.6317 8.37907 21.8787 11.4639 22.4828 15.4331H2.51489Z" fill="#4FB56B"/>
</svg>
